<mxfile host="Electron" agent="Mozilla/5.0 (Windows NT 10.0; Win64; x64) AppleWebKit/537.36 (KHTML, like Gecko) draw.io/26.0.16 Chrome/132.0.6834.196 Electron/34.2.0 Safari/537.36" version="26.0.16">
  <diagram name="Page-1" id="rOl2rywx-bk8JXCXyYNe">
    <mxGraphModel dx="1434" dy="844" grid="1" gridSize="10" guides="1" tooltips="1" connect="1" arrows="1" fold="1" page="1" pageScale="1" pageWidth="850" pageHeight="1100" math="0" shadow="0">
      <root>
        <mxCell id="0" />
        <mxCell id="1" parent="0" />
        <mxCell id="bMWK1DxQs8T2cVTxhKww-9" value="Manager&lt;div&gt;&lt;br&gt;&lt;/div&gt;" style="shape=umlActor;verticalLabelPosition=bottom;verticalAlign=top;html=1;outlineConnect=0;" parent="1" vertex="1">
          <mxGeometry x="70" y="320" width="30" height="60" as="geometry" />
        </mxCell>
        <mxCell id="bMWK1DxQs8T2cVTxhKww-13" value="" style="endArrow=none;html=1;rounded=0;entryX=0.033;entryY=0.6;entryDx=0;entryDy=0;entryPerimeter=0;" parent="1" source="bMWK1DxQs8T2cVTxhKww-9" target="bMWK1DxQs8T2cVTxhKww-12" edge="1">
          <mxGeometry width="50" height="50" relative="1" as="geometry">
            <mxPoint x="180" y="325" as="sourcePoint" />
            <mxPoint x="230" y="275" as="targetPoint" />
          </mxGeometry>
        </mxCell>
        <mxCell id="2nvIaXO1900ybHL6ZtoM-20" value="" style="swimlane;startSize=0;" parent="1" vertex="1">
          <mxGeometry x="130" y="200" width="280" height="320" as="geometry" />
        </mxCell>
        <mxCell id="bMWK1DxQs8T2cVTxhKww-12" value="&lt;div&gt;StartSimulation&lt;/div&gt;&lt;div&gt;&lt;br&gt;&lt;/div&gt;" style="ellipse;whiteSpace=wrap;html=1;" parent="2nvIaXO1900ybHL6ZtoM-20" vertex="1">
          <mxGeometry x="80" y="150" width="130" height="80" as="geometry" />
        </mxCell>
        <mxCell id="RJOKwxisfr-_N-i2LvxU-1" value="Setup&lt;div&gt;&lt;br&gt;&lt;/div&gt;" style="ellipse;whiteSpace=wrap;html=1;" vertex="1" parent="2nvIaXO1900ybHL6ZtoM-20">
          <mxGeometry x="85" y="20" width="120" height="80" as="geometry" />
        </mxCell>
        <mxCell id="RJOKwxisfr-_N-i2LvxU-2" value="" style="endArrow=none;html=1;rounded=0;exitX=0.75;exitY=0.1;exitDx=0;exitDy=0;exitPerimeter=0;" edge="1" parent="1" source="bMWK1DxQs8T2cVTxhKww-9" target="RJOKwxisfr-_N-i2LvxU-1">
          <mxGeometry width="50" height="50" relative="1" as="geometry">
            <mxPoint x="80" y="300" as="sourcePoint" />
            <mxPoint x="130" y="250" as="targetPoint" />
          </mxGeometry>
        </mxCell>
      </root>
    </mxGraphModel>
  </diagram>
</mxfile>
